grf
version=1
nRows=57
nColumns=19
inDegrees=yes
endheader
time	ground_force_1_vx	ground_force_1_vy	ground_force_1_vz	ground_force_1_px	ground_force_1_py	ground_force_1_pz	ground_moment_1_mx	ground_moment_1_my	ground_moment_1_mz	ground_force_2_vx	ground_force_2_vy	ground_force_2_vz	ground_force_2_px	ground_force_2_py	ground_force_2_pz	ground_moment_2_mx	ground_moment_2_my	ground_moment_2_mz
1.753000	15.438636	1473.411949	-462.365356	0.180375	0.000000	-0.791716	-0.000000	13.701517	0.000000	9.705011	1394.540776	454.531348	0.206827	0.000000	-1.576495	-0.000000	-8.673774	-0.000000
1.754000	15.478200	1473.345514	-462.528982	0.180841	0.000000	-0.792414	-0.000000	13.706514	0.000000	9.827909	1394.375818	454.420709	0.207016	0.000000	-1.576475	-0.000000	-8.668366	-0.000000
1.755000	15.520625	1473.271154	-462.686293	0.181505	0.000000	-0.790302	-0.000000	13.711873	0.000000	9.959704	1394.236792	454.315864	0.206982	0.000000	-1.577165	-0.000000	-8.662620	-0.000000
1.756000	15.565994	1473.187076	-462.836294	0.180560	0.000000	-0.792350	-0.000000	13.717461	0.000000	10.100048	1394.129500	454.217753	0.206945	0.000000	-1.575769	-0.000000	-8.656469	-0.000000
1.757000	15.614355	1473.090736	-462.977887	0.179974	0.000000	-0.793726	-0.000000	13.723151	0.000000	10.248486	1394.060196	454.127338	0.206588	0.000000	-1.576246	0.000000	-8.649837	-0.000000
1.758000	15.665748	1472.979656	-463.109920	0.180783	0.000000	-0.791092	-0.000000	13.728830	0.000000	10.404440	1394.035173	454.045567	0.205558	0.000000	-1.576585	0.000000	-8.642663	-0.000000
1.759000	15.720205	1472.851797	-463.231279	0.180366	0.000000	-0.792547	-0.000000	13.734406	0.000000	10.567265	1394.059666	453.973336	0.206283	0.000000	-1.576353	0.000000	-8.634938	-0.000000
1.760000	15.777715	1472.705238	-463.340964	0.180806	0.000000	-0.793501	-0.000000	13.739789	0.000000	10.736302	1394.137147	453.911492	0.206632	0.000000	-1.576156	0.000000	-8.626724	-0.000000
1.761000	15.838206	1472.538161	-463.438086	0.180430	0.000000	-0.792168	-0.000000	13.744873	0.000000	10.910855	1394.269751	453.860846	0.206852	0.000000	-1.575844	0.000000	-8.618135	-0.000000
1.762000	15.901599	1472.349177	-463.521802	0.180306	0.000000	-0.792018	-0.000000	13.749543	0.000000	11.090155	1394.458936	453.822154	0.206469	0.000000	-1.575822	0.000000	-8.609303	-0.000000
1.763000	15.967820	1472.137294	-463.591243	0.180335	0.000000	-0.792473	-0.000000	13.753685	0.000000	11.273403	1394.705696	453.796062	0.206325	0.000000	-1.575981	0.000000	-8.600344	-0.000000
1.764000	16.036777	1471.901822	-463.645516	0.180136	0.000000	-0.792545	-0.000000	13.757188	0.000000	11.459849	1395.010702	453.783076	0.205604	0.000000	-1.576320	0.000000	-8.591361	-0.000000
1.765000	16.108301	1471.642444	-463.683704	0.180619	0.000000	-0.792961	-0.000000	13.759960	0.000000	11.648805	1395.374487	453.783517	0.206577	0.000000	-1.576255	0.000000	-8.582463	-0.000000
1.766000	16.182151	1471.359346	-463.704867	0.180444	0.000000	-0.792563	-0.000000	13.761914	0.000000	11.839619	1395.797412	453.797493	0.206274	0.000000	-1.575768	0.000000	-8.573765	-0.000000
1.767000	16.258062	1471.053318	-463.708066	0.179707	0.000000	-0.791416	-0.000000	13.762958	0.000000	12.031679	1396.279405	453.824937	0.206326	0.000000	-1.575427	0.000000	-8.565354	-0.000000
1.768000	16.335772	1470.725402	-463.692431	0.179882	0.000000	-0.793213	-0.000000	13.763004	0.000000	12.224448	1396.819829	453.865720	0.205924	0.000000	-1.576771	0.000000	-8.557278	-0.000000
1.769000	16.414974	1470.376183	-463.657218	0.180385	0.000000	-0.792803	-0.000000	13.762009	0.000000	12.417512	1397.417470	453.919694	0.205811	0.000000	-1.575954	0.000000	-8.549551	-0.000000
1.770000	16.495275	1470.005617	-463.601824	0.179655	0.000000	-0.792338	-0.000000	13.759986	0.000000	12.610581	1398.070324	453.986621	0.205890	0.000000	-1.575555	0.000000	-8.542163	-0.000000
1.771000	16.576212	1469.613335	-463.525756	0.180283	0.000000	-0.792504	-0.000000	13.756968	0.000000	12.803400	1398.775299	454.066146	0.205548	0.000000	-1.576249	0.000000	-8.535090	-0.000000
1.772000	16.657297	1469.198795	-463.428592	0.179926	0.000000	-0.793388	-0.000000	13.752977	0.000000	12.995634	1399.528377	454.157912	0.205470	0.000000	-1.575609	0.000000	-8.528295	-0.000000
1.773000	16.738041	1468.761255	-463.309937	0.179108	0.000000	-0.790848	-0.000000	13.748027	0.000000	13.186813	1400.325106	454.261647	0.205771	0.000000	-1.575816	0.000000	-8.521738	-0.000000
1.774000	16.817898	1468.299621	-463.169459	0.180103	0.000000	-0.792471	-0.000000	13.742160	0.000000	13.376381	1401.160843	454.377076	0.205407	0.000000	-1.575540	0.000000	-8.515371	-0.000000
1.775000	16.896219	1467.812445	-463.007001	0.179613	0.000000	-0.793024	-0.000000	13.735478	0.000000	13.563723	1402.030858	454.503789	0.205173	0.000000	-1.575669	0.000000	-8.509156	-0.000000
1.776000	16.972279	1467.298422	-462.822687	0.180021	0.000000	-0.792536	-0.000000	13.728131	0.000000	13.748167	1402.930425	454.641232	0.205480	0.000000	-1.575217	0.000000	-8.503070	-0.000000
1.777000	17.045352	1466.756935	-462.616956	0.180204	0.000000	-0.793072	-0.000000	13.720280	0.000000	13.929008	1403.854762	454.788732	0.206034	0.000000	-1.575025	0.000000	-8.497113	-0.000000
1.778000	17.114744	1466.188091	-462.390537	0.179863	0.000000	-0.792410	-0.000000	13.712063	0.000000	14.105564	1404.798906	454.945515	0.205325	0.000000	-1.575586	0.000000	-8.491285	-0.000000
1.779000	17.179824	1465.592420	-462.144345	0.179787	0.000000	-0.793151	-0.000000	13.703593	0.000000	14.277186	1405.757653	455.110688	0.204768	0.000000	-1.574996	0.000000	-8.485586	-0.000000
1.780000	17.240050	1464.970560	-461.879399	0.180357	0.000000	-0.792003	-0.000000	13.694973	0.000000	14.443233	1406.725782	455.283231	0.205366	0.000000	-1.575896	0.000000	-8.480034	-0.000000
1.781000	17.294959	1464.323071	-461.596859	0.180055	0.000000	-0.793462	-0.000000	13.686289	0.000000	14.603052	1407.698602	455.462034	0.205041	0.000000	-1.575338	0.000000	-8.474686	-0.000000
1.782000	17.344139	1463.650435	-461.298018	0.179363	0.000000	-0.791824	-0.000000	13.677600	0.000000	14.755990	1408.672356	455.645946	0.205455	0.000000	-1.575137	0.000000	-8.469629	-0.000000
1.783000	17.387214	1462.953469	-460.984191	0.179952	0.000000	-0.793032	-0.000000	13.668950	0.000000	14.901454	1409.644137	455.833794	0.205431	0.000000	-1.575249	0.000000	-8.464956	-0.000000
1.784000	17.423883	1462.233450	-460.656646	0.180813	0.000000	-0.790710	-0.000000	13.660375	0.000000	15.038996	1410.611437	456.024357	0.205090	0.000000	-1.575973	0.000000	-8.460757	-0.000000
1.785000	17.453949	1461.491469	-460.316647	0.179800	0.000000	-0.792895	-0.000000	13.651902	0.000000	15.168372	1411.571756	456.216335	0.205175	0.000000	-1.575841	0.000000	-8.457100	-0.000000
1.786000	17.477305	1460.727925	-459.965458	0.179933	0.000000	-0.791327	-0.000000	13.643545	0.000000	15.289502	1412.522608	456.408381	0.205423	0.000000	-1.575770	0.000000	-8.454036	-0.000000
1.787000	17.493903	1459.942755	-459.604305	0.180496	0.000000	-0.793212	-0.000000	13.635320	0.000000	15.402427	1413.461744	456.599154	0.205185	0.000000	-1.576439	0.000000	-8.451586	-0.000000
1.788000	17.503786	1459.135839	-459.234351	0.180012	0.000000	-0.791454	-0.000000	13.627234	0.000000	15.507238	1414.387213	456.787358	0.205023	0.000000	-1.575242	0.000000	-8.449749	-0.000000
1.789000	17.507238	1458.307261	-458.856592	0.180015	0.000000	-0.793630	-0.000000	13.619294	0.000000	15.604022	1415.297255	456.971781	0.204780	0.000000	-1.575788	0.000000	-8.448518	-0.000000
1.790000	17.504871	1457.457648	-458.471798	0.179999	0.000000	-0.792561	-0.000000	13.611521	0.000000	15.692886	1416.190080	457.151323	0.205309	0.000000	-1.575139	0.000000	-8.447889	-0.000000
1.791000	17.497514	1456.588498	-458.080630	0.180173	0.000000	-0.792857	-0.000000	13.603960	0.000000	15.774001	1417.063365	457.325049	0.204830	0.000000	-1.576228	0.000000	-8.447869	-0.000000
1.792000	17.486080	1455.702077	-457.683756	0.180289	0.000000	-0.792528	-0.000000	13.596666	0.000000	15.847537	1417.913767	457.492203	0.205190	0.000000	-1.576221	0.000000	-8.448470	-0.000000
1.793000	17.471514	1454.800937	-457.281831	0.179448	0.000000	-0.792301	-0.000000	13.589693	0.000000	15.913586	1418.737011	457.652157	0.204633	0.000000	-1.575716	-0.000000	-8.449705	-0.000000
1.794000	17.454733	1453.887408	-456.875443	0.180608	0.000000	-0.790154	-0.000000	13.583101	0.000000	15.972137	1419.528662	457.804366	0.205817	0.000000	-1.574737	-0.000000	-8.451592	-0.000000
1.795000	17.436577	1452.963097	-456.465116	0.179808	0.000000	-0.792167	-0.000000	13.576949	0.000000	16.023137	1420.285182	457.948393	0.204924	0.000000	-1.575660	-0.000000	-8.454159	-0.000000
1.796000	17.417786	1452.028578	-456.051317	0.180405	0.000000	-0.792120	-0.000000	13.571293	0.000000	16.066558	1421.004537	458.083920	0.204822	0.000000	-1.575406	-0.000000	-8.457444	-0.000000
1.797000	17.398918	1451.083557	-455.634496	0.180573	0.000000	-0.792512	-0.000000	13.566195	0.000000	16.102370	1421.686054	458.210698	0.204924	0.000000	-1.576005	-0.000000	-8.461493	-0.000000
1.798000	17.380257	1450.127339	-455.215125	0.180630	0.000000	-0.792726	-0.000000	13.561735	0.000000	16.130483	1422.330128	458.328521	0.205162	0.000000	-1.576590	-0.000000	-8.466359	-0.000000
1.799000	17.361812	1449.159290	-454.793726	0.180140	0.000000	-0.792928	-0.000000	13.557992	0.000000	16.150741	1422.937927	458.437252	0.204542	0.000000	-1.575579	-0.000000	-8.472088	-0.000000
1.800000	17.343377	1448.179065	-454.370883	0.180449	0.000000	-0.792359	-0.000000	13.555024	0.000000	16.162952	1423.511041	458.536866	0.205025	0.000000	-1.575266	-0.000000	-8.478718	-0.000000
1.801000	17.324597	1447.186369	-453.947232	0.179758	0.000000	-0.792853	-0.000000	13.552874	0.000000	16.166958	1424.051404	458.627448	0.204903	0.000000	-1.576352	-0.000000	-8.486262	-0.000000
1.802000	17.305017	1446.180669	-453.523469	0.180430	0.000000	-0.792567	-0.000000	13.551567	0.000000	16.162717	1424.561388	458.709160	0.204702	0.000000	-1.575533	-0.000000	-8.494699	-0.000000
1.803000	17.284163	1445.161606	-453.100392	0.179990	0.000000	-0.792833	-0.000000	13.551105	0.000000	16.150313	1425.043731	458.782253	0.204303	0.000000	-1.575545	-0.000000	-8.503983	-0.000000
1.804000	17.261619	1444.129586	-452.678922	0.180315	0.000000	-0.791870	-0.000000	13.551448	0.000000	16.129889	1425.501349	458.847074	0.204676	0.000000	-1.575188	-0.000000	-8.514078	-0.000000
1.805000	17.237072	1443.085572	-452.260070	0.180014	0.000000	-0.792638	-0.000000	13.552524	0.000000	16.101565	1425.937222	458.904069	0.204718	0.000000	-1.575716	-0.000000	-8.524969	-0.000000
1.806000	17.210324	1442.030457	-451.844886	0.180253	0.000000	-0.793113	-0.000000	13.554244	0.000000	16.065401	1426.354365	458.953756	0.205069	0.000000	-1.575506	-0.000000	-8.536633	-0.000000
1.807000	17.181249	1440.964821	-451.434393	0.179900	0.000000	-0.792094	-0.000000	13.556515	0.000000	16.021434	1426.755677	458.996708	0.204759	0.000000	-1.575768	-0.000000	-8.549011	-0.000000
1.808000	17.149769	1439.888857	-451.029570	0.180406	0.000000	-0.792397	-0.000000	13.559219	0.000000	15.969741	1427.143709	459.033534	0.204093	0.000000	-1.575746	-0.000000	-8.562003	-0.000000
1.809000	17.115929	1438.802164	-450.631324	0.179819	0.000000	-0.793415	-0.000000	13.562177	0.000000	15.910434	1427.520731	459.064894	0.204394	0.000000	-1.575059	-0.000000	-8.575510	-0.000000
